<svg xmlns="http://www.w3.org/2000/svg" xmlns:xlink="http://www.w3.org/1999/xlink" width="5.7in" height="4.1in" viewBox="735 224 6841 4883"><g style="stroke-width:.025in;fill:none"><polyline points="3075 1200 4757 1480" style="stroke:#000;stroke-width:7;stroke-linejoin:miter;stroke-linecap:butt"/><polygon points="4749 1508 4873 1499 4759 1449 4749 1508" style="stroke:#000;stroke-width:7;stroke-miterlimit:8;fill:#000"/><polyline points="4881 1761 3198 2041" style="stroke:#000;stroke-width:7;stroke-linejoin:miter;stroke-linecap:butt"/><polygon points="3195 2010 3082 2060 3205 2069 3195 2010" style="stroke:#000;stroke-width:7;stroke-miterlimit:8;fill:#000"/><polyline points="4883 2974 3200 3254" style="stroke:#000;stroke-width:7;stroke-linejoin:miter;stroke-linecap:butt"/><polygon points="3197 3223 3084 3273 3207 3282 3197 3223" style="stroke:#000;stroke-width:7;stroke-miterlimit:8;fill:#000"/><polyline points="3073 2412 4755 2692" style="stroke:#000;stroke-width:7;stroke-linejoin:miter;stroke-linecap:butt"/><polygon points="4747 2720 4871 2711 4757 2661 4747 2720" style="stroke:#000;stroke-width:7;stroke-miterlimit:8;fill:#000"/><polyline points="4883 4174 3200 4454" style="stroke:#000;stroke-width:7;stroke-linejoin:miter;stroke-linecap:butt"/><polygon points="3197 4423 3084 4473 3207 4482 3197 4423" style="stroke:#000;stroke-width:7;stroke-miterlimit:8;fill:#000"/><polyline points="3073 3612 4755 3892" style="stroke:#000;stroke-width:7;stroke-linejoin:miter;stroke-linecap:butt"/><polygon points="4747 3920 4871 3911 4757 3861 4747 3920" style="stroke:#000;stroke-width:7;stroke-miterlimit:8;fill:#000"/><rect width="150" height="4125" x="3825" y="675" rx="0" style="stroke:#000;stroke-width:7;stroke-linejoin:miter;stroke-linecap:butt;stroke-dasharray:40 40"/><polyline points="3975 4950 4155 4950" style="stroke:#000;stroke-width:7;stroke-linejoin:miter;stroke-linecap:butt"/><polygon points="4154 4980 4274 4950 4154 4920 4154 4980" style="stroke:#000;stroke-width:7;stroke-miterlimit:8;fill:#000"/><polyline points="3825 4950 3644 4950" style="stroke:#000;stroke-width:7;stroke-linejoin:miter;stroke-linecap:butt"/><polygon points="3646 4920 3526 4950 3646 4980 3646 4920" style="stroke:#000;stroke-width:7;stroke-miterlimit:8;fill:#000"/><rect width="75" height="150" x="7500" y="225" rx="0" style="stroke:#000;stroke-width:0;stroke-linejoin:miter;stroke-linecap:butt"/><text x="4950" y="4125" fill="#000" font-family="Times" font-size="192" font-style="normal" font-weight="normal" text-anchor="start" xml:space="preserve">EAP-Success</text><text x="4950" y="2925" fill="#000" font-family="Times" font-size="192" font-style="normal" font-weight="normal" text-anchor="start" xml:space="preserve">EAP-MD5 challenge</text><text x="4950" y="1725" fill="#000" font-family="Times" font-size="192" font-style="normal" font-weight="normal" text-anchor="start" xml:space="preserve">EAP-Identity request</text><text x="825" y="2325" fill="#000" font-family="Times" font-size="192" font-style="normal" font-weight="normal" text-anchor="start" xml:space="preserve">EAP-Identity &quot;bob&quot;</text><text x="1725" y="1275" fill="#000" font-family="Times" font-size="192" font-style="normal" font-weight="normal" text-anchor="start" xml:space="preserve">EAP-Start</text><text x="750" y="3525" fill="#000" font-family="Times" font-size="192" font-style="normal" font-weight="normal" text-anchor="start" xml:space="preserve">EAP-MD5 response</text><text x="2925" y="5025" fill="#000" font-family="Times" font-size="192" font-style="italic" font-weight="bold" text-anchor="start" xml:space="preserve">EAP</text><text x="4350" y="5025" fill="#000" font-family="Times" font-size="192" font-style="italic" font-weight="bold" text-anchor="start" xml:space="preserve">RADIUS + EAP-Message</text><text x="1050" y="600" fill="#000" font-family="Times" font-size="240" font-style="italic" font-weight="normal" text-anchor="start" xml:space="preserve">EAP client</text><text x="5025" y="600" fill="#000" font-family="Times" font-size="240" font-style="italic" font-weight="normal" text-anchor="start" xml:space="preserve">RADIUS server</text><text x="3750" y="600" fill="#000" font-family="Times" font-size="240" font-style="italic" font-weight="normal" text-anchor="start" xml:space="preserve">AP</text></g></svg>