<svg xmlns="http://www.w3.org/2000/svg" xmlns:xlink="http://www.w3.org/1999/xlink" width="576" height="624" viewBox="578 288 7244 7824"><g style="stroke-width:.025in;fill:none"><rect width="900" height="600" x="600" y="300" rx="0" style="stroke:#000;stroke-width:7;stroke-linejoin:miter;stroke-linecap:butt"/><rect width="900" height="600" x="1800" y="300" rx="0" style="stroke:#000;stroke-width:7;stroke-linejoin:miter;stroke-linecap:butt"/><rect width="900" height="600" x="3000" y="300" rx="0" style="stroke:#000;stroke-width:7;stroke-linejoin:miter;stroke-linecap:butt"/><rect width="900" height="600" x="4200" y="300" rx="0" style="stroke:#000;stroke-width:7;stroke-linejoin:miter;stroke-linecap:butt"/><rect width="975" height="600" x="6825" y="300" rx="0" style="stroke:#000;stroke-width:7;stroke-linejoin:miter;stroke-linecap:butt"/><rect width="975" height="600" x="5475" y="300" rx="0" style="stroke:#000;stroke-width:7;stroke-linejoin:miter;stroke-linecap:butt"/><rect width="1200" height="600" x="600" y="3000" rx="0" style="stroke:#000;stroke-width:7;stroke-linejoin:miter;stroke-linecap:butt"/><rect width="1200" height="600" x="2100" y="3000" rx="0" style="stroke:#000;stroke-width:7;stroke-linejoin:miter;stroke-linecap:butt"/><rect width="1200" height="600" x="3600" y="3000" rx="0" style="stroke:#000;stroke-width:7;stroke-linejoin:miter;stroke-linecap:butt"/><rect width="1200" height="600" x="5100" y="3000" rx="0" style="stroke:#000;stroke-width:7;stroke-linejoin:miter;stroke-linecap:butt"/><rect width="1200" height="600" x="6600" y="3000" rx="0" style="stroke:#000;stroke-width:7;stroke-linejoin:miter;stroke-linecap:butt"/><rect width="1200" height="300" x="600" y="4200" rx="0" style="stroke:#000;stroke-width:7;stroke-linejoin:miter;stroke-linecap:butt"/><rect width="1200" height="300" x="600" y="4575" rx="0" style="stroke:#000;stroke-width:7;stroke-linejoin:miter;stroke-linecap:butt"/><rect width="1200" height="300" x="600" y="4950" rx="0" style="stroke:#000;stroke-width:7;stroke-linejoin:miter;stroke-linecap:butt"/><rect width="1200" height="300" x="600" y="5325" rx="0" style="stroke:#000;stroke-width:7;stroke-linejoin:miter;stroke-linecap:butt"/><rect width="1200" height="300" x="600" y="5700" rx="0" style="stroke:#000;stroke-width:7;stroke-linejoin:miter;stroke-linecap:butt"/><rect width="1200" height="300" x="600" y="6075" rx="0" style="stroke:#000;stroke-width:7;stroke-linejoin:miter;stroke-linecap:butt"/><rect width="1650" height="600" x="4875" y="7500" rx="0" style="stroke:#000;stroke-width:7;stroke-linejoin:miter;stroke-linecap:butt"/><rect width="7200" height="900" x="600" y="1800" rx="0" style="stroke:#000;stroke-width:15;stroke-linejoin:miter;stroke-linecap:butt"/><polyline points="1050 975 1050 1605" style="stroke:#000;stroke-width:7;stroke-linejoin:miter;stroke-linecap:butt"/><polygon points="1020 1604 1050 1724 1080 1604 1020 1604" style="stroke:#000;stroke-width:7;stroke-miterlimit:8;fill:#000"/><polyline points="2250 975 2250 1605" style="stroke:#000;stroke-width:7;stroke-linejoin:miter;stroke-linecap:butt"/><polygon points="2220 1604 2250 1724 2280 1604 2220 1604" style="stroke:#000;stroke-width:7;stroke-miterlimit:8;fill:#000"/><polyline points="3450 975 3450 1605" style="stroke:#000;stroke-width:7;stroke-linejoin:miter;stroke-linecap:butt"/><polygon points="3420 1604 3450 1724 3480 1604 3420 1604" style="stroke:#000;stroke-width:7;stroke-miterlimit:8;fill:#000"/><polyline points="4650 975 4650 1605" style="stroke:#000;stroke-width:7;stroke-linejoin:miter;stroke-linecap:butt"/><polygon points="4620 1604 4650 1724 4680 1604 4620 1604" style="stroke:#000;stroke-width:7;stroke-miterlimit:8;fill:#000"/><polyline points="6000 975 6000 1605" style="stroke:#000;stroke-width:7;stroke-linejoin:miter;stroke-linecap:butt"/><polygon points="5970 1604 6000 1724 6030 1604 5970 1604" style="stroke:#000;stroke-width:7;stroke-miterlimit:8;fill:#000"/><polyline points="7350 975 7350 1605" style="stroke:#000;stroke-width:7;stroke-linejoin:miter;stroke-linecap:butt"/><polygon points="7320 1604 7350 1724 7380 1604 7320 1604" style="stroke:#000;stroke-width:7;stroke-miterlimit:8;fill:#000"/><rect width="1200" height="300" x="3600" y="4200" rx="0" style="stroke:#000;stroke-width:7;stroke-linejoin:miter;stroke-linecap:butt"/><rect width="1200" height="300" x="5100" y="4200" rx="0" style="stroke:#000;stroke-width:7;stroke-linejoin:miter;stroke-linecap:butt"/><rect width="1200" height="300" x="5100" y="4575" rx="0" style="stroke:#000;stroke-width:7;stroke-linejoin:miter;stroke-linecap:butt"/><rect width="1200" height="300" x="5100" y="4950" rx="0" style="stroke:#000;stroke-width:7;stroke-linejoin:miter;stroke-linecap:butt"/><rect width="1200" height="300" x="5100" y="5325" rx="0" style="stroke:#000;stroke-width:7;stroke-linejoin:miter;stroke-linecap:butt"/><rect width="1200" height="300" x="5100" y="5700" rx="0" style="stroke:#000;stroke-width:7;stroke-linejoin:miter;stroke-linecap:butt"/><rect width="1200" height="300" x="5100" y="6075" rx="0" style="stroke:#000;stroke-width:7;stroke-linejoin:miter;stroke-linecap:butt"/><rect width="1200" height="300" x="6600" y="4200" rx="0" style="stroke:#000;stroke-width:7;stroke-linejoin:miter;stroke-linecap:butt"/><rect width="1200" height="300" x="6600" y="4575" rx="0" style="stroke:#000;stroke-width:7;stroke-linejoin:miter;stroke-linecap:butt"/><rect width="1200" height="300" x="6600" y="4950" rx="0" style="stroke:#000;stroke-width:7;stroke-linejoin:miter;stroke-linecap:butt"/><polyline points="5700 6750 5700 7305" style="stroke:#000;stroke-width:7;stroke-linejoin:miter;stroke-linecap:butt"/><polygon points="5670 7304 5700 7424 5730 7304 5670 7304" style="stroke:#000;stroke-width:7;stroke-miterlimit:8;fill:#000"/><polyline points="4200 2700 1918 2985" style="stroke:#000;stroke-width:7;stroke-linejoin:miter;stroke-linecap:butt"/><polygon points="1916 2954 1801 2999 1923 3013 1916 2954" style="stroke:#000;stroke-width:7;stroke-miterlimit:8;fill:#000"/><polyline points="4200 2700 3413 2962" style="stroke:#000;stroke-width:7;stroke-linejoin:miter;stroke-linecap:butt"/><polygon points="3404 2932 3300 2999 3423 2989 3404 2932" style="stroke:#000;stroke-width:7;stroke-miterlimit:8;fill:#000"/><polyline points="4200 2700 4200 2880" style="stroke:#000;stroke-width:7;stroke-linejoin:miter;stroke-linecap:butt"/><polygon points="4170 2879 4200 2999 4230 2879 4170 2879" style="stroke:#000;stroke-width:7;stroke-miterlimit:8;fill:#000"/><polyline points="4200 2700 4986 2962" style="stroke:#000;stroke-width:7;stroke-linejoin:miter;stroke-linecap:butt"/><polygon points="4975 2989 5099 2999 4994 2932 4975 2989" style="stroke:#000;stroke-width:7;stroke-miterlimit:8;fill:#000"/><polyline points="4200 2700 6481 2985" style="stroke:#000;stroke-width:7;stroke-linejoin:miter;stroke-linecap:butt"/><polygon points="6475 3013 6598 2999 6482 2954 6475 3013" style="stroke:#000;stroke-width:7;stroke-miterlimit:8;fill:#000"/><text x="825" y="675" fill="#000" font-family="Times" font-size="192" font-style="normal" font-weight="normal" text-anchor="start" xml:space="preserve">NAS</text><text x="2025" y="675" fill="#000" font-family="Times" font-size="192" font-style="normal" font-weight="normal" text-anchor="start" xml:space="preserve">NAS</text><text x="3225" y="675" fill="#000" font-family="Times" font-size="192" font-style="normal" font-weight="normal" text-anchor="start" xml:space="preserve">NAS</text><text x="4425" y="675" fill="#000" font-family="Times" font-size="192" font-style="normal" font-weight="normal" text-anchor="start" xml:space="preserve">NAS</text><text x="7050" y="675" fill="#000" font-family="Times" font-size="192" font-style="normal" font-weight="normal" text-anchor="start" xml:space="preserve">Proxy</text><text x="5700" y="675" fill="#000" font-family="Times" font-size="192" font-style="normal" font-weight="normal" text-anchor="start" xml:space="preserve">Proxy</text><text x="900" y="3375" fill="#000" font-family="Times" font-size="192" font-style="normal" font-weight="normal" text-anchor="start" xml:space="preserve">thread</text><text x="2400" y="3375" fill="#000" font-family="Times" font-size="192" font-style="normal" font-weight="normal" text-anchor="start" xml:space="preserve">thread</text><text x="3900" y="3375" fill="#000" font-family="Times" font-size="192" font-style="normal" font-weight="normal" text-anchor="start" xml:space="preserve">thread</text><text x="5400" y="3375" fill="#000" font-family="Times" font-size="192" font-style="normal" font-weight="normal" text-anchor="start" xml:space="preserve">thread</text><text x="6900" y="3375" fill="#000" font-family="Times" font-size="192" font-style="normal" font-weight="normal" text-anchor="start" xml:space="preserve">thread</text><text x="675" y="4425" fill="#000" font-family="Times" font-size="144" font-style="normal" font-weight="normal" text-anchor="start" xml:space="preserve">preprocess</text><text x="675" y="4800" fill="#000" font-family="Times" font-size="144" font-style="normal" font-weight="normal" text-anchor="start" xml:space="preserve">chap</text><text x="675" y="5175" fill="#000" font-family="Times" font-size="144" font-style="normal" font-weight="normal" text-anchor="start" xml:space="preserve">suffix</text><text x="675" y="5550" fill="#000" font-family="Times" font-size="144" font-style="normal" font-weight="normal" text-anchor="start" xml:space="preserve">files</text><text x="675" y="5925" fill="#000" font-family="Times" font-size="144" font-style="normal" font-weight="normal" text-anchor="start" xml:space="preserve">eap</text><text x="675" y="6300" fill="#000" font-family="Times" font-size="144" font-style="normal" font-weight="normal" text-anchor="start" xml:space="preserve">sql</text><text x="750" y="4125" fill="#000" font-family="Times" font-size="144" font-style="normal" font-weight="normal" text-anchor="start" xml:space="preserve">authorize</text><text x="5100" y="7875" fill="#000" font-family="Times" font-size="192" font-style="normal" font-weight="normal" text-anchor="start" xml:space="preserve">Home server</text><text x="2400" y="4125" fill="#000" font-family="Times" font-size="144" font-style="normal" font-weight="normal" text-anchor="start" xml:space="preserve">waiting</text><text x="3750" y="4125" fill="#000" font-family="Times" font-size="144" font-style="normal" font-weight="normal" text-anchor="start" xml:space="preserve">authenticate</text><text x="3675" y="4425" fill="#000" font-family="Times" font-size="144" font-style="normal" font-weight="normal" text-anchor="start" xml:space="preserve">unix</text><text x="5250" y="4125" fill="#000" font-family="Times" font-size="144" font-style="normal" font-weight="normal" text-anchor="start" xml:space="preserve">authorize</text><text x="5175" y="4425" fill="#000" font-family="Times" font-size="144" font-style="normal" font-weight="normal" text-anchor="start" xml:space="preserve">preprocess</text><text x="5175" y="4800" fill="#000" font-family="Times" font-size="144" font-style="normal" font-weight="normal" text-anchor="start" xml:space="preserve">chap</text><text x="5175" y="5175" fill="#000" font-family="Times" font-size="144" font-style="normal" font-weight="normal" text-anchor="start" xml:space="preserve">suffix</text><text x="5175" y="5550" fill="#000" font-family="Times" font-size="144" font-style="normal" font-weight="normal" text-anchor="start" xml:space="preserve">files</text><text x="5175" y="5925" fill="#000" font-family="Times" font-size="144" font-style="normal" font-weight="normal" text-anchor="start" xml:space="preserve">eap</text><text x="5175" y="6300" fill="#000" font-family="Times" font-size="144" font-style="normal" font-weight="normal" text-anchor="start" xml:space="preserve">sql</text><text x="5175" y="6600" fill="#000" font-family="Times" font-size="144" font-style="normal" font-weight="normal" text-anchor="start" xml:space="preserve">proxy to realm</text><text x="6675" y="4425" fill="#000" font-family="Times" font-size="144" font-style="normal" font-weight="normal" text-anchor="start" xml:space="preserve">preprocess</text><text x="6750" y="4125" fill="#000" font-family="Times" font-size="144" font-style="normal" font-weight="normal" text-anchor="start" xml:space="preserve">accounting</text><text x="6675" y="4800" fill="#000" font-family="Times" font-size="144" font-style="normal" font-weight="normal" text-anchor="start" xml:space="preserve">suffix</text><text x="6675" y="5175" fill="#000" font-family="Times" font-size="144" font-style="normal" font-weight="normal" text-anchor="start" xml:space="preserve">files</text><text x="2625" y="2325" fill="#000" font-family="Times" font-size="216" font-style="normal" font-weight="normal" text-anchor="start" xml:space="preserve">FreeRADIUS Server core</text></g></svg>