<svg xmlns="http://www.w3.org/2000/svg" xmlns:xlink="http://www.w3.org/1999/xlink" id="Layer_1" x="0" y="0" version="1.1" viewBox="0 0 160 160" xml:space="preserve" style="enable-background:new 0 0 160 160"><style type="text/css">.st0{fill:none;stroke:#ffd62b;stroke-width:3;stroke-miterlimit:10}.st3{fill:#00a6e2}.st13{fill:#fff}.st50{fill:#00131f}</style><path d="M72.3,25.6c0,0-2.3-3.2-6-2.3" class="st0"/><g><polygon points="79.2 73 20.3 37.9 86.2 19.3 145.1 54.4" class="st50"/><g><g><g><g><path d="M126.2,113.6c-4.4,0-8.2-3-9.3-7.1c2.8,1,5.7,1.6,8.8,1.6c4.4,0,7.9-3.5,7.9-7.9c0-4.4-3.5-7.9-7.9-7.9 c-5.3,0-9.9-4.3-9.9-9.6c0-0.7,0-2.1,0-2.1v-6.1c0-19.4-15.7-35.2-35.2-35.2c-19.4,0-35.2,15.7-35.2,35.2v6.1c0,0,0,1.3,0,2.1 c0,5.3-4.6,9.6-9.9,9.6c-4.4,0-7.9,3.5-7.9,7.9c0,4.4,3.5,7.9,7.9,7.9c3.5,0,6.8-0.7,9.8-2c-1,4.3-4.8,7.5-9.4,7.5 c-4.4,0-7.9,3.5-7.9,7.9c0,4.4,3.5,7.9,7.9,7.9c6.9,0,13.2-2.8,17.8-7.3v10.4c0,4.4,3.5,7.9,7.9,7.9c4.4,0,7.9-3.5,7.9-7.9 v-14.8h3.1v18.7c0,4.4,3.5,7.9,7.9,7.9c4.4,0,7.9-3.5,7.9-7.9v-18.7h3.1v14.8c0,4.4,3.5,7.9,7.9,7.9c4.4,0,7.9-3.5,7.9-7.9 v-11.4c4.7,5.1,11.3,8.2,18.7,8.2c4.4,0,7.9-3.5,7.9-7.9C134.1,117.1,130.5,113.6,126.2,113.6z" class="st3"/><g><circle cx="80" cy="76.9" r="17.5" class="st13"/><g><defs><circle id="SVGID_19_" cx="80" cy="76.9" r="17.5"/></defs><use xlink:href="#SVGID_19_" style="overflow:visible;fill:#fff"/><clipPath id="SVGID_2_"><use xlink:href="#SVGID_19_" style="overflow:visible"/></clipPath><path style="clip-path:url(#SVGID_2_);fill:#303030" d="M73.3,85.5c-6.7,0-12.2-5.5-12.2-12.2c0-6.7,5.5-12.2,12.2-12.2 s12.2,5.5,12.2,12.2C85.5,80,80.1,85.5,73.3,85.5z"/></g></g></g></g></g></g><g><path d="M46,65.8c0-19.1,15.5-29.7,34.6-29.7s34.6,10.6,34.6,29.7c0,0-9.6-9.8-34.2-9.8S46,65.8,46,65.8z" class="st50"/></g><g><path d="M66.3,23.3c0,0-10.7,2.8-10.2,9.7v20.8" class="st0"/><line x1="56" x2="59.3" y1="53.7" y2="66" class="st0"/><line x1="56" x2="54" y1="53.7" y2="64.7" class="st0"/><line x1="56" x2="62" y1="53.7" y2="59.2" class="st0"/><line x1="56" x2="50.8" y1="53.7" y2="60.4" class="st0"/></g></g></svg>